<svg width="14" height="14" viewBox="0 0 14 14" fill="none" xmlns="http://www.w3.org/2000/svg">
<path d="M5.97913 5.84953C5.97913 6.16453 6.06663 6.2112 6.26496 6.2812L6.56246 6.3862V5.39453H6.38746C6.16579 5.39453 5.97913 5.5987 5.97913 5.84953Z" fill="#9700CC"/>
<path d="M7.4375 8.60495H7.6125C7.84 8.60495 8.02083 8.40078 8.02083 8.14995C8.02083 7.83495 7.93333 7.78828 7.735 7.71828L7.4375 7.61328V8.60495Z" fill="#9700CC"/>
<path d="M11.4216 3.19797L10.2258 4.3938C10.1383 4.4813 10.0275 4.52214 9.91663 4.52214C9.80579 4.52214 9.69496 4.4813 9.60746 4.3938C9.43829 4.22464 9.43829 3.94464 9.60746 3.77547L10.8033 2.57964C9.77663 1.70464 8.45246 1.16797 6.99996 1.16797C3.77996 1.16797 1.16663 3.7813 1.16663 7.0013C1.16663 10.2213 3.77996 12.8346 6.99996 12.8346C10.22 12.8346 12.8333 10.2213 12.8333 7.0013C12.8333 5.5488 12.2966 4.22464 11.4216 3.19797ZM8.02079 6.8963C8.39413 7.03047 8.89579 7.2988 8.89579 8.1563C8.89579 8.88547 8.31829 9.4863 7.61246 9.4863H7.43746V9.63214C7.43746 9.8713 7.23913 10.0696 6.99996 10.0696C6.76079 10.0696 6.56246 9.8713 6.56246 9.63214V9.4863H6.51579C5.73996 9.4863 5.10413 8.83297 5.10413 8.02797C5.10413 7.78297 5.30246 7.58464 5.54163 7.58464C5.78079 7.58464 5.97913 7.78297 5.97913 8.02214C5.97913 8.34297 6.21829 8.60547 6.51579 8.60547H6.56246V7.31047L5.97913 7.1063C5.60579 6.97214 5.10413 6.7038 5.10413 5.8463C5.10413 5.11714 5.68163 4.5163 6.38746 4.5163H6.56246V4.3763C6.56246 4.13714 6.76079 3.9388 6.99996 3.9388C7.23913 3.9388 7.43746 4.13714 7.43746 4.3763V4.52214H7.48413C8.25996 4.52214 8.89579 5.17547 8.89579 5.98047C8.89579 6.21964 8.69746 6.41797 8.45829 6.41797C8.21913 6.41797 8.02079 6.21964 8.02079 5.98047C8.02079 5.65964 7.78163 5.39714 7.48413 5.39714H7.43746V6.69214L8.02079 6.8963Z" fill="#9700CC"/>
<path d="M13.2358 0.998802C13.1892 0.893802 13.1075 0.806302 12.9967 0.759635C12.9442 0.742135 12.8917 0.730469 12.8333 0.730469H10.5C10.2608 0.730469 10.0625 0.928802 10.0625 1.16797C10.0625 1.40714 10.2608 1.60547 10.5 1.60547H11.7775L10.8033 2.57964C11.025 2.77214 11.2292 2.9763 11.4217 3.19797L12.3958 2.2238V3.5013C12.3958 3.74047 12.5942 3.9388 12.8333 3.9388C13.0725 3.9388 13.2708 3.74047 13.2708 3.5013V1.16797C13.2708 1.10964 13.2592 1.05714 13.2358 0.998802Z" fill="#9700CC"/>
</svg>
