<svg width="256" height="256" viewBox="0 0 256 256" fill="none" xmlns="http://www.w3.org/2000/svg">
<g clip-path="url(#clip0_431_163)">
<path d="M256 128C256 198.692 198.692 256 128 256C57.3075 256 0 198.692 0 128C0 57.3075 57.3075 0 128 0C198.692 0 256 57.3075 256 128Z" fill="#1D1D1B" fill-opacity="0.04"/>
<path d="M74.6666 101.333V88C74.6666 84.4638 76.0714 81.0724 78.5719 78.5719C81.0724 76.0714 84.4637 74.6667 88 74.6667H101.333" stroke="black" stroke-width="12" stroke-linecap="round" stroke-linejoin="round"/>
<path d="M74.6666 154.667V168C74.6666 171.536 76.0714 174.928 78.5719 177.428C81.0724 179.929 84.4637 181.333 88 181.333H101.333" stroke="black" stroke-width="12" stroke-linecap="round" stroke-linejoin="round"/>
<path d="M154.667 74.6667H168C171.536 74.6667 174.928 76.0714 177.428 78.5719C179.929 81.0724 181.333 84.4638 181.333 88V101.333" stroke="black" stroke-width="12" stroke-linecap="round" stroke-linejoin="round"/>
<path d="M154.667 181.333H168C171.536 181.333 174.928 179.929 177.428 177.428C179.929 174.928 181.333 171.536 181.333 168V154.667" stroke="black" stroke-width="12" stroke-linecap="round" stroke-linejoin="round"/>
<path d="M94.6666 128H161.333" stroke="black" stroke-width="12" stroke-linecap="round" stroke-linejoin="round"/>
</g>
<defs>
<clipPath id="clip0_431_163">
<rect width="256" height="256" fill="white"/>
</clipPath>
</defs>
</svg>
