<svg width="14" height="14" viewBox="0 0 14 14" fill="none" xmlns="http://www.w3.org/2000/svg">
<path d="M9.41495 1.72742L4.14745 3.47742C0.606613 4.66159 0.606613 6.59242 4.14745 7.77076L5.71078 8.28992L6.22995 9.85326C7.40828 13.3941 9.34495 13.3941 10.5233 9.85326L12.2791 4.59159C13.0608 2.22909 11.7774 0.939924 9.41495 1.72742ZM9.60161 4.86576L7.38495 7.09409C7.29745 7.18159 7.18661 7.22242 7.07578 7.22242C6.96495 7.22242 6.85411 7.18159 6.76661 7.09409C6.59745 6.92492 6.59745 6.64492 6.76661 6.47576L8.98328 4.24742C9.15245 4.07826 9.43245 4.07826 9.60161 4.24742C9.77078 4.41659 9.77078 4.69659 9.60161 4.86576Z" fill="#9700CC"/>
</svg>
