<svg width="256" height="256" viewBox="0 0 256 256" fill="none" xmlns="http://www.w3.org/2000/svg">
<g clip-path="url(#clip0_424_169)">
<path d="M256 128C256 198.692 198.692 256 128 256C57.3075 256 0 198.692 0 128C0 57.3075 57.3075 0 128 0C198.692 0 256 57.3075 256 128Z" fill="#1D1D1B" fill-opacity="0.04"/>
<path d="M172 128.442L172 128.37" stroke="black" stroke-width="12" stroke-linecap="round" stroke-linejoin="round"/>
<path d="M151.262 149.18C145.763 143.68 142.673 136.22 142.673 128.442C142.673 120.664 145.763 113.205 151.262 107.704" stroke="black" stroke-width="12" stroke-linecap="round" stroke-linejoin="round"/>
<path d="M130.516 169.926C125.068 164.478 120.747 158.011 117.798 150.893C114.85 143.775 113.333 136.146 113.333 128.442C113.333 120.738 114.85 113.109 117.798 105.991C120.747 98.8732 125.068 92.4059 130.516 86.9582" stroke="black" stroke-width="12" stroke-linecap="round" stroke-linejoin="round"/>
<path d="M109.778 190.664C75.4073 156.301 75.4073 100.583 109.778 66" stroke="black" stroke-width="12" stroke-linecap="round" stroke-linejoin="round"/>
</g>
<defs>
<clipPath id="clip0_424_169">
<rect width="256" height="256" fill="white"/>
</clipPath>
</defs>
</svg>
