<svg width="256" height="256" viewBox="0 0 256 256" fill="none" xmlns="http://www.w3.org/2000/svg">
<g clip-path="url(#clip0_431_155)">
<path d="M256 128C256 198.692 198.692 256 128 256C57.3075 256 0 198.692 0 128C0 57.3075 57.3075 0 128 0C198.692 0 256 57.3075 256 128Z" fill="#F3FCFB"/>
<path d="M96.75 121.75C96.75 118.435 98.067 115.255 100.411 112.911C102.755 110.567 105.935 109.25 109.25 109.25H171.75C175.065 109.25 178.245 110.567 180.589 112.911C182.933 115.255 184.25 118.435 184.25 121.75V159.25C184.25 162.565 182.933 165.745 180.589 168.089C178.245 170.433 175.065 171.75 171.75 171.75H109.25C105.935 171.75 102.755 170.433 100.411 168.089C98.067 165.745 96.75 162.565 96.75 159.25V121.75Z" stroke="black" stroke-width="12" stroke-linecap="round" stroke-linejoin="round"/>
<path d="M128 140.5C128 143.815 129.317 146.995 131.661 149.339C134.005 151.683 137.185 153 140.5 153C143.815 153 146.995 151.683 149.339 149.339C151.683 146.995 153 143.815 153 140.5C153 137.185 151.683 134.005 149.339 131.661C146.995 129.317 143.815 128 140.5 128C137.185 128 134.005 129.317 131.661 131.661C129.317 134.005 128 137.185 128 140.5Z" stroke="black" stroke-width="12" stroke-linecap="round" stroke-linejoin="round"/>
<path d="M159.25 109.25V96.75C159.25 93.4348 157.933 90.2554 155.589 87.9112C153.245 85.567 150.065 84.25 146.75 84.25H84.25C80.9348 84.25 77.7554 85.567 75.4112 87.9112C73.067 90.2554 71.75 93.4348 71.75 96.75V134.25C71.75 137.565 73.067 140.745 75.4112 143.089C77.7554 145.433 80.9348 146.75 84.25 146.75H96.75" stroke="black" stroke-width="12" stroke-linecap="round" stroke-linejoin="round"/>
</g>
<defs>
<clipPath id="clip0_431_155">
<rect width="256" height="256" fill="white"/>
</clipPath>
</defs>
</svg>
